<svg xmlns="http://www.w3.org/2000/svg" viewBox="0 0 1621.47 818.25"><defs><style>.cls-1,.cls-5{fill:#fff;}.cls-2,.cls-3{fill:#ccc;}.cls-2{opacity:0.69;}.cls-3,.cls-6{opacity:0.5;}.cls-4{fill:#0f0904;}.cls-5,.cls-8{stroke:#000;}.cls-5{stroke-miterlimit:10;stroke-width:8.46px;}.cls-6,.cls-9{fill:#e5ace5;}.cls-7{fill:#091307;}.cls-8{fill:none;stroke-linecap:round;stroke-linejoin:round;stroke-width:1.35px;}.cls-10{fill:#232020;}.cls-11{fill:#f79522;}.cls-12{fill:#252221;}</style></defs><title>Asset 2</title><g id="Layer_2" data-name="Layer 2"><g id="Layer_1-2" data-name="Layer 1"><path class="cls-1" d="M107.69,453.5c-46.42.17-70.51,22.22-85.42,45.17-39,60-8,152,49,130,27-11,61.48-60,61.48-60S115.12,455.33,107.69,453.5Z"/><path d="M0,559c0-22.64,6.41-44.92,18.19-63,20.63-31.74,49.9-47.24,89.49-47.39h.6l.58.14c3.74.92,6.16,4.36,10.61,22.32,2.41,9.72,5.21,23.1,8.33,39.77,5.29,28.3,9.72,56.75,9.77,57l.3,1.94-1.13,1.61c-1.44,2-35.62,50.32-63.63,61.73-20.7,8-40.56,2.63-54.59-14.66C7.29,604.68.55,584,0,561.86,0,560.92,0,560,0,559ZM105.48,458.39c-35.37.68-60.56,14.36-79.13,42.93-24.83,38.19-19.47,87.39-.27,111.06,8,9.9,22.09,20,43.44,11.74,22.65-9.23,52-48.33,58.11-56.7C120.16,519.74,110.21,468.11,105.48,458.39Z"/><path class="cls-2" d="M82.27,539.67c9,31,19,52,31,46,23-20-3-133-23-126C72.27,472.67,77.67,523.83,82.27,539.67Z"/><path class="cls-1" d="M120.22,416l15-114.42s-57.28-36.82-89-23.48c-40.45,17-55.45,108-22.43,136.79C56.37,443.26,120.22,416,120.22,416Z"/><path d="M1,363.05a134.71,134.71,0,0,1,1.69-21.12C6.89,315.7,20,284,44.38,273.76c33.59-14.15,90.93,22.3,93.35,23.86l2.52,1.62L124.57,419.32l-2.49,1.06c-2.72,1.16-67,28.06-101.39-1.9C6.16,405.84,1,384,1,363.05Zm129.08-59c-11.17-6.7-56.59-32.26-82-21.54-17.11,7.21-31.25,31.13-36,60.95-4.69,29.31,1.14,56,14.86,67.91,26.54,23.09,77.23,5.79,89,1.31Z"/><path class="cls-2" d="M80.27,351.67c7.75-23.26,32-51,46-50,19,8-23,120-34,118C74.27,408.67,76.27,363.67,80.27,351.67Z"/><path class="cls-1" d="M413.93,433.48s8.56-66.5,14.27-97.2,14.27-84.41,28.53-120.22c14.4-36.13-14.27-48.6-42.8-53.71-36.37-6.52-45.66,15.35-62.78,69.06-16.89,53-34.24,212.29-34.24,212.29Z"/><path d="M312.52,448.09l.52-4.79c.71-6.52,17.59-160.31,34.4-213.05,8.44-26.47,15.16-46.15,24.83-58.35,10.05-12.68,23.11-16.8,42.34-13.35,24.23,4.34,39.27,12.33,46,24.41,5.22,9.4,5.14,21-.26,34.57-12.31,30.89-20.22,74.72-26,106.72-.83,4.57-1.6,8.85-2.33,12.76-5.62,30.23-14.15,96.32-14.23,97l-.39,3ZM456.66,198.43a23.73,23.73,0,0,0-2.86-11.71c-5.51-9.91-18.77-16.63-40.56-20.54-32.47-5.82-40.87,11.46-58.38,66.41-14.94,46.86-30.49,179.77-33.54,206.74l89.15-9.4c1.75-13.42,8.94-67.67,13.9-94.36.72-3.9,1.5-8.17,2.32-12.72,5.84-32.33,13.83-76.6,26.43-108.22A44.28,44.28,0,0,0,456.66,198.43Z"/><path class="cls-3" d="M429.27,309.67l-91,4,3-21c29-21,62-21,92-3Z"/><path class="cls-1" d="M413.79,511.21s8.4,63,14,92,14,79.92,28,113.82c14.13,34.21-14,46-42,50.86-35.7,6.17-44.81-14.53-61.62-65.39-16.57-50.16-33.61-201-33.61-201Z"/><path d="M314.08,497.09l103.21,10.5.41,3.09c.08.63,8.45,63.19,14,91.8.71,3.7,1.47,7.76,2.28,12.08,5.67,30.29,13.43,71.76,25.5,101,5.25,12.71,5.41,23.67.49,32.59-6.48,11.75-21.36,19.49-45.48,23.67-18.89,3.27-31.73-.65-41.62-12.69-9.52-11.59-16.13-30.25-24.42-55.35-16.51-50-33.09-195.63-33.79-201.8Zm96.21,17.73L323,505.95c3.09,26.26,18.28,151.19,32.87,195.34,17.15,51.92,25.38,68.24,57.19,62.74,21.31-3.69,34.74-10.31,39.91-19.7,3.7-6.72,3.41-15.38-.88-25.76-12.38-30-20.23-71.92-26-102.54-.81-4.31-1.56-8.35-2.27-12C419.06,578.83,412.06,527.87,410.29,514.82Z"/><path class="cls-3" d="M344.27,651.67c20,15,74,7,84-24l-3-16-85,20S339.27,623.67,344.27,651.67Z"/><path class="cls-1" d="M253.11,319.23s21.07-2.17,32.71-17.32c8.8-11.46,18-34,13.24-57.6-5.48-26.84-36.77-49.27-62.57-43.2-24.22,5.69-33.23,17.71-41.24,29.72s-16.06,31.12-10.5,50.14c8.42,28.8,36.1,38,36.1,38Z"/><path d="M179.41,267.92c0-17.41,8.54-32.46,12.92-39,8.75-13.12,18.65-25.38,43.35-31.19,12.32-2.89,26.69.12,39.44,8.28,14.18,9.07,24.41,23.14,27.37,37.64,4.72,23.11-3.57,47-13.89,60.44-12.41,16.16-34.21,18.57-35.13,18.67l-.19,0-33-.31-.52-.17c-1.2-.4-29.52-10.09-38.36-40.31A49.8,49.8,0,0,1,179.41,267.92Zm117.44-10.47A62.2,62.2,0,0,0,295.62,245C293,232.33,284,219.95,271.35,211.87c-11.16-7.14-23.57-9.82-34.05-7.36-22.25,5.23-30.88,15.89-39.12,28.25-5,7.48-15.95,27.05-10.05,47.21,7.2,24.61,29.8,34.09,33.37,35.45l31.44.29c2-.25,20.11-2.91,30.12-15.95C290.54,290,296.85,274.16,296.85,257.45Z"/><path class="cls-2" d="M285.27,296.67c-12,20-35.21,14.7-57,4-23.7-4.87-43-10-42-36,2.44-40.07,47.53-12.54,67.34.84C271,277.27,284.33,287.79,285.27,296.67Z"/><path class="cls-1" d="M425.53,304.55c-61.26,6.12-87.46,3.3-142.17,0-68.81-4.14-87.09-44.88-127.09-22.88-43,26-59,94.91-60,167-1,74,15.32,143.93,51,157,71,26,259,54,308.3-9.82C488.35,553.41,509.33,296.17,425.53,304.55Z"/><path d="M92,454.94q0-3.16,0-6.33c.68-50.1,9.64-138.88,62-170.56l.15-.09c23.86-13.12,40.74-5.58,62.12,4,16.53,7.38,37.09,16.57,67.26,18.39l16.52,1c44,2.76,70.55,4.43,125-1,18-1.8,32.58,7.11,43.32,26.49,23,41.43,20.95,116.71,19,147.15C483.81,531,472.34,581,458.91,598.44c-28.38,36.74-97,42.15-149.51,40.23-64.37-2.36-129.92-16.7-163.59-29-18-6.59-32.47-26.79-41.86-58.42C96.21,525.08,92,491.1,92,454.94Zm66.38-169.61c-48.84,29.61-57.23,115.07-57.89,163.39C100,486.4,104.1,522,112.07,548.82c8.59,29,21.27,47.25,36.66,52.88,33.06,12.11,97.54,26.19,161,28.52,71.47,2.62,122.08-10.5,142.51-36.95,12.29-15.91,23.3-65.19,26.78-119.83,3.94-61.85-2.78-115.13-18-142.51-9.08-16.37-20.56-23.63-35.09-22.18-55.11,5.51-81.92,3.82-126.35,1l-16.5-1c-31.7-1.91-53-11.45-70.2-19.11C192.2,280.41,178.51,274.29,158.38,285.33Z"/><path class="cls-3" d="M438.27,309.67c-28,34-46,90.85-46,146,0,107,37.88,156.44,45,149,30-12,21.57-93.57,20-157C455.35,370.33,473.27,320.67,438.27,309.67Z"/><path class="cls-1" d="M529.49,743.73c6.57,11.16,52.62,61.08,68.3,65-1.08-25.88,2.28-36.7,2.28-36.7,10.47,13.29,34.77,29.05,57.29,38.79,0,0-4.1-25,12.21-36.35s157.77-20.32,183.11-34.35c24.11-7.11,57.06-39.75,76.74-34.09,34.94,24.09,223.78,53.56,365.75,1.87s331.05-171.32,321.43-237.27-102.86-43.36-210.84-54.1-375.08,94.23-375.08,94.23c-1.43-19.46.13-60.63,7.57-74.29s29.05-34.77,29.05-34.77c-14.76-5.6-28.61-6.22-41.66-2.45,4.72-24.34,5.29-37.59,24.61-49.84,28.18-9.95,498.91-224.1,519.63-248.22s-24.32-43.6-32.12-47.85S1433.85,11.94,1372.32,8.79s-231.73-25-345.48,72.4S912.57,193.5,908.49,196.34s-4,1.29-11.16,6.57c-1.84,1.36-57.48-31.83-119.88-40-47.23-6.17-157.81-35.34-170.95-57.67-5,11.47-9.95,21.14-15.94,29.26A96.31,96.31,0,0,1,570.52,111c-25.39,21.05-51.86,47.55-65.19,73.27C455.22,280.88,422.7,343.55,427,462.8,434,658.87,529.49,743.73,529.49,743.73Z"/><path d="M422.1,442.27c0-107.3,32-169.13,79.14-260l.08-.16c14.79-28.53,44.23-56.35,66.32-74.66l4-3.3,2.73,4.38a96.84,96.84,0,0,0,15.41,19.21c4.13-6.31,8.12-14,12.61-24.32l3.54-8.12,4.49,7.63c5.06,8.6,31.27,20.89,70.13,32.87,32.7,10.09,72.8,19.39,97.51,22.61,47.88,6.25,92.08,27.14,111,36.07,2.83,1.34,5.74,2.71,7.47,3.46a32.61,32.61,0,0,1,6.5-3.71,13.88,13.88,0,0,0,2.87-1.57c.25-.27.84-1.11,1.41-1.93,5.56-8,22.5-32.35,116.66-113,105-89.89,256.75-79.61,329.7-74.68,7.23.49,13.48.91,19,1.19,62.16,3.18,159.12,40.61,167.37,45.1.64.35,1.56.81,2.67,1.37,10,5.06,33.48,16.9,36.81,33.64,1.36,6.81-.69,13.46-6.09,19.75-11.71,13.63-147.05,78.53-258.54,130.58-120.08,56.06-245.51,112.52-262.52,118.78-15.35,9.88-17.2,19.88-20.86,39.62l0,.2c12.11-2.09,24.71-.7,37.55,4.17l6.61,2.51-5.06,4.94c-.21.21-21.22,20.8-28.24,33.7-5.92,10.87-8.14,44.18-7.36,65.68,18-6.9,75.52-28.52,141.54-49,107.11-33.22,184.43-47.78,229.81-43.27,28.84,2.87,57.17,3.35,82.17,3.78,69.89,1.2,125.1,2.14,132.69,54.16,2.49,17.06-6.68,37.67-27.27,61.24-18.16,20.8-44.57,43.37-78.48,67.08-63,44.07-146.8,87.69-218.61,113.83-83.68,30.47-176.77,30.46-224.81,27.75-63.25-3.57-123.6-16-144.36-29.68-9.91-2.25-25.56,7.55-40.71,17-11,6.87-22.3,14-32.42,17.07-14.37,7.57-58.18,13.41-100.57,19.05-35,4.67-74.75,10-81.7,14.81-13.81,9.62-10.37,31.7-10.33,31.92l1.33,8.15L655.57,815c-17.55-7.59-39.12-20.16-52.63-33.14a176.1,176.1,0,0,0-.64,26.72l.25,6-5.86-1.47c-17-4.27-62.72-53.83-70.72-66.49-3.73-3.45-25.92-24.93-49.06-67.69-22.8-42.14-50.76-113.82-54.43-216Q422.1,452.34,422.1,442.27ZM569.52,117.68c-20.89,17.71-46.92,43-60.18,68.62l-.08.16c-46.49,89.68-78.12,150.72-78.13,256,0,6.55.12,13.26.37,20.16,3.6,100.15,30.87,170.33,53.11,211.56,24.09,44.67,47.64,66,47.88,66.16l.53.47.36.61c5.79,9.83,41.92,49,59.7,60.14-.26-21.14,2.55-30.45,2.68-30.87l2.55-8.19,5.31,6.74c8.53,10.82,28,24.42,48.76,34.35,0-9.21,2.21-24.19,14.61-32.83,8.33-5.8,38-10,85.67-16.35,40.05-5.34,85.45-11.39,97.84-18.25l.43-.24.48-.14c9-2.67,20-9.55,30.64-16.2,17.94-11.24,34.88-21.86,48.63-17.91l.71.2.61.42c32.46,22.38,218.73,53.37,361.64,1.34,150.63-54.85,327.2-172.84,318.51-232.37-6.48-44.42-55.74-45.27-123.91-46.44-25.17-.43-53.7-.92-82.9-3.82-105.67-10.51-370.32,92.9-373,93.94l-5.7,2.24-.45-6.11c-1.44-19.57,0-62,8.11-76.78,5.43-10,17.66-23.31,24.68-30.59a58.34,58.34,0,0,0-32.07-.13l-7.09,2,1.41-7.24c.47-2.42.9-4.72,1.31-6.93,3.77-20.34,6.27-33.78,25.32-45.86l.43-.27.48-.17c13.14-4.64,135.83-59.63,262.21-118.63,151.92-70.92,247.43-118.88,255.51-128.28,3.55-4.13,4.88-8.09,4.09-12.1-2.48-12.42-23.95-23.26-32-27.34-1.22-.61-2.21-1.12-2.92-1.5-8-4.38-102.72-40.9-163.51-44-5.55-.28-11.83-.71-19.1-1.2-71.75-4.86-221.06-15-323.22,72.53-93.28,79.89-109.72,103.52-115.12,111.29a15.09,15.09,0,0,1-3.59,4.13,22.83,22.83,0,0,1-4.51,2.5,28.81,28.81,0,0,0-6.56,4c-2.62,1.93-4,1.27-14.88-3.86-18.49-8.74-61.79-29.21-108.26-35.28-42.42-5.54-142.27-30.5-169.1-54a136,136,0,0,1-13.57,23.75L591.37,141l-3.68-3A97.59,97.59,0,0,1,569.52,117.68Z"/><path d="M895.27,208.27l4.9-6a524.39,524.39,0,0,1,73,72.77l-6,4.91A516.66,516.66,0,0,0,895.27,208.27Z"/><path d="M966.55,278.88l7.23-2.75,5.31,14c3.8-3.14,9.34-7.26,13.57-8.5,6.55-1.93,16.75-1.6,17.18-1.59l5.11.18-1.56,4.87c-5.92,18.47-14.07,46.71-13.62,51.67a13.93,13.93,0,0,0,1.48,5.52c5-2.89,15.41-8.44,22.15-9,7.77-.7,12.48-1,18.79,1.91l3.55,1.61-1.64,3.54c-4.58,9.9-10.23,38.08-12,48.1l-7.62-1.36c.06-.34,5.56-30.95,11-46.07-2.76-.64-5.78-.53-11.4,0-5.79.52-17.5,7.08-21.53,9.56l-1.91,1.18-2-1.07c-.59-.32-5.75-3.4-6.62-13.16-.63-7.13,8.23-36.49,12.35-49.64a43.58,43.58,0,0,0-9.56,1.24c-3.75,1.11-11,7-14.76,10.48l-4.21,3.92Z"/><path class="cls-4" d="M1528.59,482.61"/><path class="cls-1" d="M17.77,315.17c18.8-3.31,35-4,43,6"/><path d="M13,315.16a4.73,4.73,0,0,1,3.91-4.66c18.83-3.31,37.62-4.67,47.52,7.7a4.73,4.73,0,0,1-7.39,5.91c-6.84-8.55-23.29-7-38.48-4.3A4.74,4.74,0,0,1,13,315.16Z"/><path class="cls-1" d="M5.77,362.17c6,8,35,14,49,3"/><path d="M1,362.17a4.73,4.73,0,0,1,8.52-2.84C11.32,361.68,18,364.81,27,366c10.24,1.35,19.54-.35,24.88-4.54a4.73,4.73,0,0,1,5.85,7.44c-7.4,5.82-19,8.18-32,6.48C17.17,374.25,6.43,370.93,2,365A4.72,4.72,0,0,1,1,362.17Z"/><path class="cls-1" d="M11.55,564.22c15.72,2.45,34.4-5.08,42.72-12.55"/><path d="M6.48,564.23a5.12,5.12,0,0,1,.06-.79,5.06,5.06,0,0,1,5.78-4.22c14.43,2.25,31.67-5.12,38.56-11.31a5.06,5.06,0,1,1,6.76,7.53c-9.84,8.83-30.07,16.41-46.88,13.78A5.06,5.06,0,0,1,6.48,564.23Z"/><path class="cls-1" d="M15.77,606.17c9,9,44,4,48-14"/><path d="M11,606.17a4.73,4.73,0,0,1,8.08-3.35c3.06,3.06,13.42,4.28,23.95,1.22,8.85-2.58,14.87-7.4,16.09-12.9a4.73,4.73,0,1,1,9.24,2.05c-2,9.05-10.28,16.32-22.68,19.93-11.07,3.22-26.21,3.47-33.29-3.61A4.72,4.72,0,0,1,11,606.17Z"/><path class="cls-1" d="M441.85,756c.42-11.29-3.58-15.29-8.58-27.29"/><path d="M429.1,728.67a4.17,4.17,0,0,1,8-1.61c1.28,3.06,2.51,5.63,3.59,7.9,3.16,6.6,5.65,11.8,5.3,21.15a4.17,4.17,0,0,1-8.34-.31c.27-7.28-1.42-10.82-4.49-17.24-1.13-2.36-2.41-5-3.77-8.29A4.16,4.16,0,0,1,429.1,728.67Z"/><path class="cls-1" d="M413.27,767.67c-10-4-11-16-14-25"/><path d="M395,742.67a4.23,4.23,0,0,1,8.24-1.34c.64,1.93,1.19,4,1.73,5.94,2,7.23,3.8,14.06,9.83,16.47a4.23,4.23,0,0,1-3.14,7.85c-9.95-4-12.67-14-14.85-22.12-.53-1.94-1-3.78-1.59-5.47A4.22,4.22,0,0,1,395,742.67Z"/><path class="cls-1" d="M414.27,162.67c-11.25,7.74-13.23,21.39-15,30"/><path d="M395,192.67a4.25,4.25,0,0,1,.09-.86q.19-.9.38-1.87c1.79-9,4.5-22.59,16.37-30.76a4.23,4.23,0,1,1,4.79,7c-9,6.22-11.25,17.33-12.87,25.45-.13.66-.26,1.31-.39,1.92a4.23,4.23,0,0,1-8.37-.85Z"/><path class="cls-1" d="M440.55,171.94c3.72,12.73-7.54,27.11-10.28,29.73"/><path d="M426,201.67a4.22,4.22,0,0,1,1.31-3.06c2-1.93,12.26-14.81,9.14-25.49a4.23,4.23,0,1,1,8.12-2.37c4.33,14.82-8.11,30.81-11.42,34a4.23,4.23,0,0,1-7.15-3.06Z"/><path class="cls-5" d="M255.32,748.95"/><path class="cls-6" d="M1540.87,483.63s-169.57,106-197.6,120-84.95,40-128,59-201,34-232.07-3.83c-3.92-4.77,7.68-9.31,14-12,46.84,3.32,91.23-6.1,135.16-24,51.06-21,117.14-57.07,198.24-93.11C1415.72,492.64,1509.84,477.62,1540.87,483.63Z"/><path class="cls-6" d="M1476.8,100.17s-90,15.66-122,23.71c-31.69,8-95.37,22.24-123.78,28-28.62,5.77-88.53,17.67-116.69,27.36-47,14.08-97.56,53.68-97.56,53.68-22.58,16.73-37.59,36.49-46.6,38.49l-17-19c-4.86,2.68,40.1-87.68,119.1-124.68,36-14,104.55-31.35,185-42,68-9,101,1,136,4C1421.36,92.08,1476.8,100.17,1476.8,100.17Z"/><path class="cls-7" d="M797.11,615.46"/><ellipse cx="738.75" cy="341.54" rx="72.27" ry="73.17"/><ellipse class="cls-1" cx="764.67" cy="366.06" rx="16.48" ry="17.95"/><path class="cls-1" d="M759.39,382.85c-8.52-3.84-13.06-14.48-10.14-23.75s12.19-13.68,20.71-9.83S783,363.75,780.1,373,767.91,386.7,759.39,382.85Z"/><path class="cls-1" d="M734.36,352.56a9.46,9.46,0,0,1-4.81-11.26c1.38-4.4,5.78-6.48,9.82-4.66a9.46,9.46,0,0,1,4.81,11.26C742.79,352.29,738.4,354.38,734.36,352.56Z"/><path class="cls-4" d="M808.9,327.95l-1.08-2.28Z"/><path class="cls-4" d="M805.56,322.28,804.45,320Z"/><path d="M575.94,473.17c0-37.49,15.53-57.38,28.56-67.46a65.79,65.79,0,0,1,28.87-13,3.36,3.36,0,0,1,.89,6.67h0a60.2,60.2,0,0,0-25.9,11.87c-17.05,13.33-25.7,34.17-25.7,61.94s8.65,48.6,25.7,61.94A60.2,60.2,0,0,0,634.26,547a3.36,3.36,0,0,1-.89,6.67,65.79,65.79,0,0,1-28.87-13C591.47,530.55,575.94,510.66,575.94,473.17Z"/><path class="cls-8" d="M531.52,473.17"/><path d="M554.13,473.22q0-.38,0-.76c.06-3.4.77-14.68,7.39-17.23,4.33-1.54,11.42-.89,17.67-.31l1,.1a3.37,3.37,0,0,1,3,3.74,124.74,124.74,0,0,0,0,29.11,3.37,3.37,0,0,1-3.08,3.75c-1.18.09-2.35.21-3.54.33-4.82.5-9.79,1-14.88-.46l-.38-.14C556,489.06,554.13,480.63,554.13,473.22Zm22.11-11.81c-4.49-.39-10-.73-12.37.13-.9.35-2.88,4.09-3,11s1.69,11.71,3.07,12.53c3.76,1,7.79.6,12.06.16l.27,0A131.62,131.62,0,0,1,576.24,461.41Z"/><path d="M625.07,575.46s0-.05,0-.08c.47-19.66,7.67-35.44,21.4-46.92a3.36,3.36,0,1,1,4.32,5.16c-12.35,10.32-18.56,24-19,41.92a3.36,3.36,0,0,1-6.73-.08Z"/><path d="M619.94,370.32a3.37,3.37,0,0,1,6.69-.52c2.51,15.89,11.09,28.26,26.21,37.82a3.36,3.36,0,0,1-3.59,5.69c-16.62-10.5-26.47-24.78-29.27-42.45A3.43,3.43,0,0,1,619.94,370.32Z"/><polygon class="cls-9" points="634.74 472.12 650.74 459.12 656.74 462.12 655.74 481.12 651.74 487.12 640.74 481.12 634.74 472.12"/><path d="M554.4,473.17a3.36,3.36,0,0,1,3.36-3.36h74.45A69.31,69.31,0,0,1,642.85,460c7.78-5.81,10.77-5.63,12.66-4.68,1.36.68,3.88,1.94,3.88,17.81s-2.52,17.14-3.88,17.81c-2.67,1.34-6.29-.06-12.48-4.81a97.52,97.52,0,0,1-10.69-9.64H557.77A3.36,3.36,0,0,1,554.4,473.17Zm97.57-11c-3.18,1.58-9.42,6.34-13.64,10.93,4.71,4.78,10.6,9.44,13.66,11.08C652.88,479.2,652.88,467,652,462.13Zm-.46,23.71Zm0-25.34Z"/><ellipse cx="741.76" cy="595.85" rx="72.27" ry="73.17"/><ellipse class="cls-1" cx="767.69" cy="620.36" rx="16.48" ry="17.95"/><path class="cls-1" d="M762.4,637.16c-8.52-3.84-13.06-14.48-10.14-23.75s12.19-13.68,20.71-9.83S786,618,783.11,627.32,770.92,641,762.4,637.16Z"/><path class="cls-1" d="M737.37,606.86a9.46,9.46,0,0,1-4.81-11.26c1.38-4.4,5.78-6.48,9.82-4.66a9.46,9.46,0,0,1,4.81,11.26C745.81,606.59,741.41,608.68,737.37,606.86Z"/><path d="M677,284.67a3,3,0,0,1,5.34-1.88c13.25,16.56,26.2,48.81,25.29,78.41-.83,27.47-5.14,38.42-9.12,46.53a3,3,0,0,1-5.39-2.64c3.7-7.55,7.72-17.8,8.51-44.07.85-28.15-11.42-58.78-24-74.48A3,3,0,0,1,677,284.67Z"/><path class="cls-1" d="M694.27,402.67c-12.35-13-22.64-25.75-29-38a179.86,179.86,0,0,1-1-52c1.54-8.15,6.67-17.19,15-24C704.4,322.46,707.27,373.67,694.27,402.67Z"/><path d="M677,653.41a3,3,0,0,1,.66-1.87c12.56-15.7,24.82-46.33,24-74.48-.8-26.27-4.81-36.52-8.51-44.07a3,3,0,0,1,5.39-2.64c4,8.11,8.29,19.06,9.12,46.53.92,29.6-12,61.85-25.29,78.41a3,3,0,0,1-5.34-1.88Z"/><path class="cls-1" d="M694.27,535.41c-12.35,13-22.64,25.75-29,38a179.86,179.86,0,0,0-1,52c1.54,8.15,6.67,17.19,15,24C704.4,615.62,707.27,564.41,694.27,535.41Z"/><path d="M961.82,684l-21.95,21.4c-4.31,3.45-3.29-.19-7.61,3.26-4.29-1.46-14.71.46-19-1,2.61-2,6.05-.23,8.63-2.24,25.51-20,49.49-41.42,65.94-70l8.87-14.56,2.31.55-1.39,15c10.47.33,21,1.37,31.38.86,48.65-2.37,93.05-19.22,136.37-40.11,56.94-27.47,113.51-55.88,171.5-81,54.17-23.42,111-39.25,170.66-40.57,14.9-.33,29.85,1.81,44.77,5.05l-11.23,3c-2.11-.46-4.23-1.37-6.33-1.33-38.5.74-76.22,7.19-113.4,16.66a638,638,0,0,0-124.71,46.25c-42,20.68-84.49,40.24-126.53,60.79-53.64,26.21-109,44.56-169.84,41.08-3.81-.22-8.73,3.1-11.64,6.18C979.3,663.24,970.7,673.76,961.82,684Z"/><path d="M982.26,262.63c26.19-24.54,54.2-46.56,85.89-63.77,47.32-25.69,99.72-33.5,151.36-44.53,65.35-14,130.32-29.69,195.6-44,20.4-4.46,41.29-6.73,62-10l1.26,4.86c-8.68,1.89-17.39,3.64-26,5.69-64.29,15.23-128.49,30.86-192.89,45.64-36.69,8.42-73.78,15.12-110.55,23.22-41.3,9.1-79.29,26-113,51.64-19.68,14.93-43.84,35.68-63,51.26-2.64-3-10.67-11.36-2.58-12.9C971.58,269.51,981.38,265.37,982.26,262.63Z"/><path class="cls-10" d="M445.77,304.17c-8,22-19,70-21,90,0,0-56,12-47,90,6.77,58.64,53,58,53,58,0,4,17,65.26,17,67,0,11,1,13.93,1,21,0,10,3.92,17.51-3,25-24,26-89.78,33.22-107,16-3-3-6-21.45-7-28-44,9-105.41-4.45-113-8-17.37-4-45.47-87.28-40-168,5.56-81.94,35-161.4,55.24-178,1.3-1.06,2.43-2.3,4.06-2.7,17.81-4.4,52.55,15.62,93.7,12.75-.68-8.84,1.72-21.86,3.27-26.77a1.76,1.76,0,0,1,2.63-1c38.46,25.14,80.55,8.43,108.1-9.28,4.95-3.18.48,14.95,0,24-.5,9.48,2,12.89,0,18"/><path class="cls-11" d="M263.23,553.3a632.22,632.22,0,0,1,0-145.77h68a694.83,694.83,0,0,0,0,145.77Z"/><path class="cls-10" d="M268.82,399.78c0-.48.11-.59.59-.59q26.35,0,52.69,0c.48,0,5.64.11,5.59.59a699.12,699.12,0,0,0,0,161.27c.06.48-5.11.59-5.59.59q-26.35,0-52.69,0c-.48,0-.59-.11-.59-.59C260.67,534.17,260.84,426.65,268.82,399.78Zm20.6,70a39.27,39.27,0,0,0-7.54,3.24l-7,3.08c-.23.1-.38.19-.38.49,0,1.68,0,3.36,0,5a19.64,19.64,0,0,0-1.84,10.56,20.42,20.42,0,0,0,4.75,11c.26.32.42.28.71,0q2.76-2.28,5.55-4.53c.32-.26.4-.42.12-.8a12.19,12.19,0,0,1,2.58-17,14.33,14.33,0,0,1,11-2.5,12.52,12.52,0,0,1,9.05,19.05c-.21.32-.17.5.13.73q2.85,2.27,5.67,4.58c.33.27.48.19.7-.1a19.56,19.56,0,0,0,4-16.45c-1.33-6.48-5.21-11.11-10.93-14.28-.22-.12-.49-.17-.63-.41,3.57-1.58,7.12-3.22,10.74-4.7,1.24-.51,1.83-1.11,1.61-2.47a1,1,0,0,0-.62-.94q-21-10-42-20c-.2-.09-.38-.27-.65-.21,0,2.8,0,5.59,0,8.38a.8.8,0,0,0,.54.85q7.46,3.52,14.91,7.08l10.8,5.15c-.24.12-.42.22-.62.3-3.25,1.42-6.5,2.84-9.74,4.28C290,469.47,289.65,469.51,289.42,469.81Zm14.33,43.37c4.6,0,9,0,13.38,0,.44,0,.57-.09.57-.55q0-3.52,0-7c0-.43-.13-.51-.53-.51q-21.07,0-42.14,0c-.45,0-.56.12-.56.57,0,2.28,0,4.56,0,6.84,0,.57.14.7.7.7,5,0,10.06,0,15.09,0a1,1,0,0,1,.78.18c1,1,2.1,1.93,3.18,2.93l-.66.35q-9.27,4.85-18.54,9.68a.88.88,0,0,0-.55.92c0,2.15,0,4.31,0,6.46a5.74,5.74,0,0,1-.19,1.51,14.35,14.35,0,0,0-.31,6,15.38,15.38,0,0,0,15.54,13.13,15.15,15.15,0,0,0,13.52-8.1c.63-1.09.62-1.09-.38-1.81l-.46-.34c-.74-.56-.77-.55-1.18.28-2.39,4.8-6.33,7.18-11.63,7.41-7.61.33-15.17-7.87-12.4-16.27a1.73,1.73,0,0,1,.87-1.08q11.16-6.12,22.29-12.28a.85.85,0,0,1,1.15.09q6.45,5.44,12.95,10.82a1.42,1.42,0,0,1,.57,1.25c0,1.92,0,3.84,0,5.75,0,.26.11.62-.16.75s-.5-.15-.74-.29l-.37-.24L300.85,532a1.63,1.63,0,0,0-.86-.4,17.92,17.92,0,0,1,1.68,7.22c-.4-.27-.7-.46-1-.67-2.57-1.89-5.13-3.81-7.72-5.68a7.54,7.54,0,0,0-8.42-.28,7.44,7.44,0,1,0,11.18,8.34c.22-.78.22-1.59.39-2.45l11.72,8.6a10,10,0,0,0,.08-2.58,1.38,1.38,0,0,0-.61-1.07c-.83-.59-1.66-1.19-2.49-1.79-.22-.16-.53-.3-.54-.59a22.41,22.41,0,0,1,.07-3.21l13,8.48c.29-3.61-.08-7.14.26-10.69.3-3.21.06-6.47.07-9.71a.94.94,0,0,0-.36-.81q-5.11-4.3-10.2-8.63ZM296,439.64q10.52,0,21,0c.47,0,.65-.08.64-.61q0-3.42,0-6.84c0-.55-.16-.65-.67-.65-5.09,0-10.19,0-15.28,0-.51,0-.62-.14-.62-.63q0-6.84,0-13.68c0-.55.17-.66.68-.65,5.09,0,10.19,0,15.28,0,.46,0,.62-.08.61-.58,0-2.32,0-4.65,0-7,0-.39-.06-.55-.51-.55q-21.1,0-42.19,0c-.43,0-.52.13-.52.54,0,2.3,0,4.6,0,6.9,0,.53.13.66.66.66,5.56,0,11.12,0,16.69,0,.53,0,.71.09.71.68q0,6.81,0,13.62c0,.6-.18.67-.71.67-5.58,0-11.17,0-16.75,0-.47,0-.6.1-.6.59q0,3.39,0,6.78c0,.56.1.74.71.74C282.11,439.63,289.06,439.64,296,439.64Z"/><path class="cls-1" d="M317.7,545.9c-4.32-2.81-9-5.61-13.36-8.48a22.41,22.41,0,0,0-.07,3.21c0,.3.32.43.54.59.83.6,1.65,1.2,2.49,1.79a1.38,1.38,0,0,1,.61,1.07,10,10,0,0,1-.08,2.58l-11.72-8.6c-.17.86-.16,1.67-.39,2.45a7.46,7.46,0,1,1-11.18-8.34,7.54,7.54,0,0,1,8.42.28c2.59,1.87,5.15,3.79,7.72,5.68.29.21.59.4,1,.67a17.92,17.92,0,0,0-1.68-7.22,1.63,1.63,0,0,1,.86.4l12.67,8.27.37.24c.23.14.48.42.74.29s.16-.49.16-.75c0-1.92,0-3.84,0-5.75a1.42,1.42,0,0,0-.57-1.25q-6.5-5.38-12.95-10.82a.85.85,0,0,0-1.15-.09q-11.14,6.16-22.29,12.28a1.73,1.73,0,0,0-.87,1.08c-2.77,8.4,4.79,16.59,12.4,16.27,5.31-.23,9.24-2.61,11.63-7.41.41-.83.45-.84,1.18-.28l.46.34c1,.72,1,.72.38,1.81a15.15,15.15,0,0,1-13.52,8.1A15.38,15.38,0,0,1,274,541.17a14.35,14.35,0,0,1,.31-6,5.74,5.74,0,0,0,.19-1.51c0-2.15,0-4.31,0-6.46a.88.88,0,0,1,.55-.92q9.28-4.82,18.54-9.68l.66-.35c-1.09-1-2.14-2-3.18-2.93a1,1,0,0,0-.78-.18c-5,0-10.06,0-15.09,0-.56,0-.71-.13-.7-.7,0-2.28,0-4.56,0-6.84,0-.44.11-.57.56-.57q21.07,0,42.14,0c.4,0,.54.08.53.51q0,3.52,0,7c0,.46-.13.55-.57.55-4.39,0-8.78,0-13.38,0l3.38,2.88q5.09,4.32,10.2,8.63a.94.94,0,0,1,.36.81m-29.2,7.87a5,5,0,1,0,4.9,4.73A5,5,0,0,0,288.5,533.37Z"/><path class="cls-1" d="M296,439.64c-6.95,0-13.89,0-20.84,0-.61,0-.72-.18-.71-.74q0-3.39,0-6.78c0-.49.12-.59.6-.59,5.58,0,11.17,0,16.75,0,.52,0,.71-.07.71-.67q0-6.81,0-13.62c0-.59-.17-.68-.71-.68-5.56,0-11.12,0-16.69,0-.53,0-.67-.13-.66-.66,0-2.3,0-4.6,0-6.9,0-.4.09-.54.52-.54q21.1,0,42.19,0c.45,0,.51.16.51.55,0,2.32,0,4.65,0,7,0,.5-.15.59-.61.58-5.09,0-10.19,0-15.28,0-.52,0-.69.11-.68.65q0,6.84,0,13.68c0,.49.11.63.62.63,5.09,0,10.19,0,15.28,0,.51,0,.68.09.67.65q-.05,3.42,0,6.84c0,.53-.17.61-.64.61Q306.52,439.63,296,439.64Z"/><path class="cls-1" d="M305.38,471.6a13.47,13.47,0,0,1-2-.76,24,24,0,0,0-13.12-1.1,7.94,7.94,0,0,1-.89.07c.23-.3.61-.34.92-.48,3.24-1.44,6.49-2.85,9.74-4.28.19-.08.38-.19.62-.3l-10.8-5.15q-7.45-3.55-14.91-7.08a.8.8,0,0,1-.54-.85c0-2.79,0-5.58,0-8.38.27-.06.45.12.65.21q21,10,42,20a1,1,0,0,1,.62.94c.22,1.37-.37,2-1.61,2.47C312.5,468.38,309,470,305.38,471.6Z"/><path class="cls-12" d="M281.88,473.05c0,.21-.16.29-.29.38a21.64,21.64,0,0,0-7.1,8.22c0-1.68,0-3.36,0-5,0-.3.15-.39.38-.49Z"/><path class="cls-11" d="M288.5,533.37a5,5,0,0,1,4.9,4.73,4.92,4.92,0,0,1-5,5.21,5,5,0,1,1,.12-9.94Z"/></g></g></svg>